<?xml version="1.0" encoding="utf-8"?>
<!-- Generator: Adobe Illustrator 27.9.0, SVG Export Plug-In . SVG Version: 6.00 Build 0)  -->
<svg version="1.1" id="Layer_1" xmlns="http://www.w3.org/2000/svg" xmlns:xlink="http://www.w3.org/1999/xlink" x="0px" y="0px"
	 viewBox="0 0 256 256" style="enable-background:new 0 0 256 256;" xml:space="preserve">
<style type="text/css">
	.st0{fill:#050606;}
	.st1{fill:#FFFFFF;}
</style>
<path class="st0" d="M229.19,189.43H26.81C12.06,189.43,0,177.36,0,162.62V26.81C0,12.06,12.06,0,26.81,0h202.39
	C243.94,0,256,12.06,256,26.81v135.81C256,177.36,243.94,189.43,229.19,189.43z"/>
<path class="st0" d="M85.26,171.04"/>
<path class="st0" d="M71.47,189.43"/>
<polygon class="st0" points="82.19,189.43 123.55,256 164.91,189.43 "/>
<g>
	<path class="st1" d="M22.64,124.27c0.22-3.52,0.44-10.02,0.44-16.08v-62.1h16.74v30.72h0.22c3.19-4.62,8.81-7.6,16.3-7.6
		c12.88,0,22.35,10.68,22.24,27.2c0,19.38-12.33,29.07-24.66,29.07c-6.28,0-12.33-2.31-16.19-8.7H37.5l-0.66,7.49H22.64z
		 M39.81,101.37c0,1.1,0.11,2.09,0.33,2.97c1.1,4.51,4.95,7.93,9.8,7.93c7.16,0,11.56-5.51,11.56-15.19
		c0-8.37-3.74-14.97-11.56-14.97c-4.51,0-8.7,3.41-9.8,8.26c-0.22,0.99-0.33,1.98-0.33,3.08V101.37z"/>
	<path class="st1" d="M88.92,46.09h16.74v78.18H88.92V46.09z"/>
	<path class="st1" d="M172.38,96.74c0,19.71-13.98,28.74-28.41,28.74c-15.75,0-27.86-10.35-27.86-27.75
		c0-17.4,11.45-28.52,28.74-28.52C161.36,69.22,172.38,80.56,172.38,96.74z M133.4,97.29c0,9.25,3.85,16.19,11.01,16.19
		c6.5,0,10.68-6.5,10.68-16.19c0-8.04-3.08-16.19-10.68-16.19C136.37,81.11,133.4,89.37,133.4,97.29z"/>
	<path class="st1" d="M234.47,70.43c-0.22,3.41-0.44,7.93-0.44,15.97v30.06c0,10.35-2.09,18.83-8.15,24.22
		c-5.95,5.07-13.98,6.61-21.91,6.61c-7.05,0-14.53-1.43-19.38-4.18l3.3-12.66c3.41,1.98,9.36,4.07,15.63,4.07
		c7.93,0,13.98-4.29,13.98-14.2v-3.52h-0.22c-3.19,4.51-8.37,7.05-14.53,7.05c-13.32,0-22.79-10.79-22.79-26.32
		c0-17.29,11.23-28.3,24.44-28.3c7.38,0,12,3.19,14.75,7.6h0.22l0.55-6.39H234.47z M217.29,92.34c0-1.1-0.11-2.2-0.33-3.08
		c-1.21-4.4-4.4-7.38-9.03-7.38c-6.06,0-11.01,5.51-11.01,15.3c0,8.04,3.96,14.31,11.01,14.31c4.29,0,7.71-2.86,8.81-6.83
		c0.44-1.21,0.55-2.97,0.55-4.4V92.34z"/>
</g>
</svg>
